<?xml version="1.0" standalone="no"?>
<!DOCTYPE svg PUBLIC "-//W3C//DTD SVG 20010904//EN"
 "http://www.w3.org/TR/2001/REC-SVG-20010904/DTD/svg10.dtd">
<svg version="1.0" xmlns="http://www.w3.org/2000/svg"
 width="200.000000pt" height="200.000000pt" viewBox="0 0 200.000000 200.000000"
 preserveAspectRatio="xMidYMid meet">
<metadata>
Created by potrace 1.16, written by Peter Selinger 2001-2019
</metadata>
<g transform="translate(0.000000,200.000000) scale(0.100000,-0.100000)"
fill="#000000" stroke="none">
<path d="M260 1551 c-14 -27 -14 -845 0 -872 10 -18 24 -19 290 -19 l280 0 0
-70 0 -70 -65 0 -65 0 0 -35 0 -35 300 0 300 0 0 35 0 35 -65 0 -65 0 0 70 0
70 283 2 282 3 0 450 0 450 -732 3 c-716 2 -732 2 -743 -17z m1400 -401 l0
-340 -660 0 -660 0 0 340 0 340 660 0 660 0 0 -340z"/>
<path d="M1015 1328 c-2 -7 -34 -95 -70 -194 -36 -100 -65 -187 -65 -193 0 -7
20 -11 50 -11 28 0 50 1 50 3 0 2 33 94 74 205 l74 202 -55 0 c-34 0 -55 -5
-58 -12z"/>
<path d="M718 1229 c-129 -64 -138 -71 -138 -98 0 -26 7 -31 138 -89 l137 -61
3 36 c2 19 1 41 -2 48 -2 7 -37 25 -77 41 l-73 29 77 35 77 35 0 48 c0 26 -1
47 -2 46 -2 0 -65 -31 -140 -70z"/>
<path d="M1140 1252 l0 -49 77 -34 77 -35 -77 -29 -77 -30 0 -47 0 -48 58 26
c31 14 94 42 140 61 75 33 82 39 82 65 0 26 -10 33 -140 98 l-140 70 0 -48z"/>
</g>
</svg>
